<?xml version="1.0" encoding="UTF-8"?><svg xmlns="http://www.w3.org/2000/svg" viewBox="0 0 448 282.66"><defs><style>.cls-1{fill:#00aac0;}.cls-2{stroke-width:.39px;}.cls-2,.cls-3{fill:none;stroke:#6d5a44;stroke-miterlimit:10;}.cls-4{fill:#441d1c;}.cls-5{fill:#967b5e;}.cls-6{fill:#47612d;}.cls-7{letter-spacing:.02em;}.cls-7,.cls-8,.cls-9,.cls-10,.cls-11{fill:#6d5a43;}.cls-7,.cls-8,.cls-9,.cls-11{font-family:Inter-Bold, Inter;font-size:7px;font-variation-settings:'wght' 700, 'slnt' 0;font-weight:700;}.cls-12{fill:#f0efef;}.cls-13{fill:#231f20;font-family:MyriadPro-Regular, 'Myriad Pro';font-size:12px;}.cls-14{fill:#c6a77a;}.cls-15{fill:#065f66;}.cls-16{fill:#05703a;}.cls-17{fill:#00393d;}.cls-18{fill:#b9e4ef;}.cls-19{fill:#2b2527;}.cls-3{stroke-width:.42px;}.cls-20{fill:#0e9146;}.cls-9{letter-spacing:-.04em;}.cls-21{fill:#a15d46;}.cls-22{fill:#86d3e7;}.cls-23{fill:#606060;}.cls-11{letter-spacing:-.08em;}.cls-24{fill:#823f25;}</style></defs><g id="Layer_1"><g><rect class="cls-18" x="91.98" y="15.63" width="68.91" height="263.61"/><rect class="cls-18" x="61.98" y="65.09" width="30" height="214.15"/><rect class="cls-18" x="217.81" width="73.15" height="279.24"/><rect class="cls-18" x="325.17" y="39.89" width="68.3" height="239.35"/><rect class="cls-18" x="33.75" y="50.39" width="32.3" height="227.45"/><rect class="cls-18" x="290.96" y="81.1" width="34.21" height="198.14"/><rect class="cls-22" x="356.49" y="71.62" width="91.51" height="207.92"/><rect class="cls-22" y="176.27" width="173.96" height="102.97"/><rect class="cls-22" x="256.75" y="119.21" width="68.42" height="160.03"/><rect class="cls-1" x="15.19" y="113.61" width="123.98" height="165.63"/><rect class="cls-1" x="160.89" y="55.75" width="105.44" height="223.48"/><rect class="cls-1" x="279.53" y="147.2" width="152.9" height="132.04"/><rect class="cls-18" x="26.58" y="126.86" width="25.37" height="14.93" rx="2.52" ry="2.52"/><rect class="cls-18" x="65.8" y="126.92" width="25.37" height="14.93" rx="2.52" ry="2.52"/><rect class="cls-18" x="105.02" y="126.92" width="25.37" height="14.93" rx="2.52" ry="2.52"/><rect class="cls-18" x="26.58" y="151.56" width="25.37" height="14.93" rx="2.52" ry="2.52"/><rect class="cls-18" x="65.8" y="151.62" width="25.37" height="14.93" rx="2.52" ry="2.52"/><rect class="cls-18" x="105.02" y="151.62" width="25.37" height="14.93" rx="2.52" ry="2.52"/><rect class="cls-18" x="26.58" y="176.32" width="25.37" height="14.93" rx="2.52" ry="2.52"/><rect class="cls-18" x="65.8" y="176.38" width="25.37" height="14.93" rx="2.52" ry="2.52"/><rect class="cls-18" x="105.02" y="176.38" width="25.37" height="14.93" rx="2.52" ry="2.52"/><rect class="cls-18" x="26.58" y="201.14" width="25.37" height="14.93" rx="2.52" ry="2.52"/><rect class="cls-18" x="65.8" y="201.2" width="25.37" height="14.93" rx="2.52" ry="2.52"/><rect class="cls-18" x="105.02" y="201.2" width="25.37" height="14.93" rx="2.52" ry="2.52"/><rect class="cls-18" x="26.58" y="225.85" width="25.37" height="14.93" rx="2.52" ry="2.52"/><rect class="cls-18" x="65.8" y="225.91" width="25.37" height="14.93" rx="2.52" ry="2.52"/><rect class="cls-18" x="105.02" y="225.91" width="25.37" height="14.93" rx="2.52" ry="2.52"/><rect class="cls-18" x="26.58" y="250.61" width="25.37" height="14.93" rx="2.52" ry="2.52"/><rect class="cls-18" x="65.8" y="250.67" width="25.37" height="14.93" rx="2.52" ry="2.52"/><rect class="cls-18" x="105.02" y="250.67" width="25.37" height="14.93" rx="2.52" ry="2.52"/><rect class="cls-18" x="291.49" y="183.85" width="128.98" height="14.93" rx="5.68" ry="5.68"/><rect class="cls-18" x="291.49" y="161.39" width="25.37" height="14.93" rx="2.52" ry="2.52"/><rect class="cls-18" x="325.7" y="161.39" width="25.37" height="14.93" rx="2.52" ry="2.52"/><rect class="cls-18" x="359.91" y="161.39" width="25.37" height="14.93" rx="2.52" ry="2.52"/><rect class="cls-18" x="393.47" y="161.39" width="25.37" height="14.93" rx="2.52" ry="2.52"/><rect class="cls-18" x="292.3" y="206.3" width="25.37" height="14.93" rx="2.52" ry="2.52"/><rect class="cls-18" x="326.51" y="206.3" width="25.37" height="14.93" rx="2.52" ry="2.52"/><rect class="cls-18" x="360.73" y="206.3" width="25.37" height="14.93" rx="2.52" ry="2.52"/><rect class="cls-18" x="394.28" y="206.3" width="25.37" height="14.93" rx="2.52" ry="2.52"/><rect class="cls-18" x="291.49" y="228.75" width="128.98" height="14.93" rx="5.68" ry="5.68"/><rect class="cls-18" x="292.3" y="251.21" width="25.37" height="14.93" rx="2.52" ry="2.52"/><rect class="cls-18" x="326.51" y="251.21" width="25.37" height="14.93" rx="2.52" ry="2.52"/><rect class="cls-18" x="360.73" y="251.21" width="25.37" height="14.93" rx="2.52" ry="2.52"/><rect class="cls-18" x="394.28" y="251.21" width="25.37" height="14.93" rx="2.52" ry="2.52"/><rect class="cls-18" x="170.7" y="67" width="89.61" height="14.93" rx="4.74" ry="4.74"/><rect class="cls-18" x="169.51" y="90.21" width="89.61" height="14.93" rx="4.74" ry="4.74"/><rect class="cls-18" x="169.51" y="113.53" width="89.61" height="14.93" rx="4.74" ry="4.74"/><rect class="cls-18" x="169.51" y="136.23" width="89.61" height="14.93" rx="4.74" ry="4.74"/><rect class="cls-18" x="169.51" y="159.55" width="89.61" height="14.93" rx="4.74" ry="4.74"/><rect class="cls-18" x="169.51" y="182.88" width="89.61" height="14.93" rx="4.74" ry="4.74"/><rect class="cls-18" x="170.26" y="206.21" width="89.61" height="14.93" rx="4.74" ry="4.74"/><rect class="cls-18" x="170.26" y="229.54" width="89.61" height="14.93" rx="4.74" ry="4.74"/><rect class="cls-18" x="170.26" y="252.87" width="89.61" height="14.93" rx="4.74" ry="4.74"/><rect class="cls-15" y="279.24" width="448" height="3.43"/><g><ellipse class="cls-16" cx="43.23" cy="226.47" rx="22.82" ry="30.64"/><rect class="cls-4" x="43" y="214.06" width=".46" height="65.18" transform="translate(86.45 493.29) rotate(-180)"/><rect class="cls-4" x="35.37" y="228.22" width=".46" height="21.77" transform="translate(229.84 383.01) rotate(135)"/><rect class="cls-4" x="50.63" y="215.59" width=".46" height="21.77" transform="translate(175.04 30.37) rotate(45)"/></g><g><path class="cls-15" d="M27.87,279.24h7.12c0-.05,0-.1,0-.15,0-2.59,.7-4.99,1.9-7.01-1.44-.97-3.14-1.54-4.96-1.54-2.2,0-4.23,.82-5.82,2.18,1.12,1.86,1.77,4.04,1.77,6.37,0,.05,0,.1,0,.15Z"/><path class="cls-15" d="M41.11,279.24h11.12c.4-2.89,2.15-5.35,4.6-6.71-2.05-3.78-5.8-6.32-10.1-6.32s-7.75,2.34-9.85,5.87c2.3,1.55,3.91,4.15,4.23,7.16Z"/><path class="cls-15" d="M34.99,279.24h6.12c-.32-3.01-1.93-5.61-4.23-7.16-1.2,2.02-1.9,4.42-1.9,7.01,0,.05,0,.1,0,.15Z"/><path class="cls-15" d="M58.46,279.24h11.77c-.61-4.43-4.4-7.85-9-7.85-1.6,0-3.1,.42-4.4,1.14,1.04,1.92,1.64,4.16,1.64,6.56,0,.05,0,.1,0,.15Z"/><path class="cls-15" d="M52.23,279.24h6.23c0-.05,0-.1,0-.15,0-2.4-.6-4.64-1.64-6.56-2.45,1.36-4.2,3.82-4.6,6.71Z"/><path class="cls-15" d="M26.1,272.72c-2.16-3.58-6.09-5.97-10.57-5.97-6.82,0-12.34,5.53-12.34,12.34,0,.05,0,.1,0,.15H22.72c.28-2.63,1.54-4.94,3.38-6.52Z"/><path class="cls-15" d="M22.72,279.24h5.15c0-.05,0-.1,0-.15,0-2.33-.65-4.51-1.77-6.37-1.84,1.58-3.1,3.89-3.38,6.52Z"/></g><g><ellipse class="cls-20" cx="159.11" cy="171.22" rx="46.72" ry="62.73"/><rect class="cls-4" x="158.64" y="145.8" width=".93" height="133.44" transform="translate(318.21 425.04) rotate(-180)"/><rect class="cls-4" x="143.02" y="174.79" width=".93" height="44.57" transform="translate(384.3 234.98) rotate(135)"/><rect class="cls-4" x="174.26" y="148.94" width=".93" height="44.57" transform="translate(172.25 -73.4) rotate(45)"/></g><g><path class="cls-15" d="M98.7,278.93c0,.1-.01,.2-.02,.31h30.03c0-3.93,1.72-7.46,4.45-9.88-3.62-7.2-11.08-12.15-19.69-12.15-9.22,0-17.11,5.67-20.4,13.7,3.28,1.19,5.63,4.33,5.63,8.02Z"/><path class="cls-15" d="M148.18,279.24c0-.1,0-.2,0-.31,0-3.43,1.08-6.61,2.92-9.22-2.38-2.28-5.6-3.69-9.15-3.69-3.37,0-6.44,1.26-8.77,3.33,1.5,2.97,2.34,6.33,2.34,9.88h12.67Z"/><path class="cls-15" d="M128.71,279.24h6.79c0-3.56-.85-6.91-2.34-9.88-2.73,2.42-4.45,5.95-4.45,9.88Z"/><path class="cls-15" d="M93.07,270.91c-.91-.33-1.89-.52-2.92-.52-4.72,0-8.55,3.83-8.55,8.55,0,.1,.01,.2,.02,.31h9.82c0-2.95,.58-5.76,1.63-8.33Z"/><path class="cls-15" d="M98.68,279.24c0-.1,.02-.2,.02-.31,0-3.69-2.35-6.83-5.63-8.02-1.05,2.57-1.63,5.38-1.63,8.33h7.24Z"/><path class="cls-15" d="M155.15,279.24h20.3c0-2.64,1.58-4.91,3.84-5.92-2.28-6.1-8.16-10.45-15.05-10.45-5.44,0-10.24,2.7-13.15,6.84,2.5,2.4,4.06,5.78,4.06,9.53Z"/><path class="cls-15" d="M148.18,279.24h6.97c0-3.74-1.56-7.12-4.06-9.53-1.83,2.61-2.92,5.79-2.92,9.22,0,.1,0,.2,0,.31Z"/><path class="cls-15" d="M180.29,279.24h8.15c0-3.59-2.91-6.49-6.49-6.49-.95,0-1.84,.21-2.66,.57,.65,1.75,1.01,3.64,1.01,5.61,0,.1,0,.2,0,.31Z"/><path class="cls-15" d="M175.45,279.24h4.84c0-.1,0-.2,0-.31,0-1.98-.36-3.87-1.01-5.61-2.26,1.02-3.84,3.28-3.84,5.92Z"/></g><g><ellipse class="cls-20" cx="311.37" cy="200.15" rx="34.21" ry="45.93"/><rect class="cls-4" x="311.03" y="181.54" width=".68" height="97.7" transform="translate(622.74 460.78) rotate(-180)"/><rect class="cls-4" x="299.59" y="202.77" width=".68" height="32.63" transform="translate(666.93 161.92) rotate(135)"/><rect class="cls-4" x="322.46" y="183.84" width=".68" height="32.63" transform="translate(236.08 -169.63) rotate(45)"/></g><g><g><path class="cls-15" d="M272.07,279.24h-9.82c0-.07,0-.14,0-.21,0-3.57-.96-6.89-2.61-9.67,1.98-1.34,4.32-2.12,6.85-2.12,3.04,0,5.83,1.13,8.02,3.01-1.55,2.56-2.44,5.57-2.44,8.78,0,.07,0,.14,0,.21Z"/><path class="cls-15" d="M253.8,279.24h-15.34c-.55-3.99-2.96-7.38-6.34-9.25,2.82-5.21,8-8.71,13.93-8.71,5.69,0,10.69,3.22,13.58,8.09-3.17,2.14-5.4,5.72-5.83,9.88Z"/><path class="cls-15" d="M262.24,279.24h-8.44c.44-4.16,2.66-7.73,5.83-9.88,1.65,2.78,2.61,6.1,2.61,9.67,0,.07,0,.14,0,.21Z"/><path class="cls-15" d="M229.87,279.24h-16.23c.84-6.11,6.07-10.82,12.41-10.82,2.2,0,4.27,.57,6.07,1.57-1.43,2.65-2.26,5.74-2.26,9.05,0,.07,0,.14,0,.21Z"/><path class="cls-15" d="M238.46,279.24h-8.6c0-.07,0-.14,0-.21,0-3.3,.83-6.4,2.26-9.05,3.38,1.87,5.79,5.27,6.34,9.25Z"/><path class="cls-15" d="M274.5,270.24c2.98-4.94,8.39-8.24,14.58-8.24,9.4,0,17.02,7.62,17.02,17.02,0,.07,0,.14,0,.21h-26.93c-.38-3.62-2.12-6.81-4.66-8.99Z"/><path class="cls-15" d="M279.16,279.24h-7.1c0-.07,0-.14,0-.21,0-3.21,.89-6.22,2.44-8.78,2.54,2.18,4.28,5.37,4.66,8.99Z"/></g><g><path class="cls-15" d="M325.61,279.17h7.12c0-.05,0-.1,0-.15,0-2.59,.7-4.99,1.9-7.01-1.44-.97-3.14-1.54-4.96-1.54-2.2,0-4.23,.82-5.82,2.18,1.12,1.86,1.77,4.04,1.77,6.37,0,.05,0,.1,0,.15Z"/><path class="cls-15" d="M338.85,279.17h11.12c.4-2.89,2.15-5.35,4.6-6.71-2.05-3.78-5.8-6.32-10.1-6.32s-7.75,2.34-9.85,5.87c2.3,1.55,3.91,4.15,4.23,7.16Z"/><path class="cls-15" d="M332.73,279.17h6.12c-.32-3.01-1.93-5.61-4.23-7.16-1.2,2.02-1.9,4.42-1.9,7.01,0,.05,0,.1,0,.15Z"/><path class="cls-15" d="M356.21,279.17h11.77c-.61-4.43-4.4-7.85-9-7.85-1.6,0-3.1,.42-4.4,1.14,1.04,1.92,1.64,4.16,1.64,6.56,0,.05,0,.1,0,.15Z"/><path class="cls-15" d="M349.97,279.17h6.23c0-.05,0-.1,0-.15,0-2.4-.6-4.64-1.64-6.56-2.45,1.36-4.2,3.82-4.6,6.71Z"/><path class="cls-15" d="M323.84,272.64c-2.16-3.58-6.09-5.97-10.57-5.97-6.82,0-12.34,5.53-12.34,12.34,0,.05,0,.1,0,.15h19.53c.28-2.63,1.54-4.94,3.38-6.52Z"/><path class="cls-15" d="M320.46,279.17h5.15c0-.05,0-.1,0-.15,0-2.33-.65-4.51-1.77-6.37-1.84,1.58-3.1,3.89-3.38,6.52Z"/></g></g><g><ellipse class="cls-16" cx="402.6" cy="231.72" rx="20.55" ry="27.6"/><rect class="cls-4" x="402.4" y="220.54" width=".41" height="58.7" transform="translate(805.21 499.77) rotate(-180)"/><rect class="cls-4" x="395.53" y="233.29" width=".41" height="19.61" transform="translate(847.45 135.16) rotate(135)"/><rect class="cls-4" x="409.27" y="221.92" width=".41" height="19.61" transform="translate(283.78 -221.67) rotate(45)"/></g><g><path class="cls-15" d="M432.99,279.34c0,.06,0,.13,0,.19h-18.7c0-2.45-1.07-4.65-2.77-6.15,2.26-4.48,6.9-7.56,12.26-7.56,5.74,0,10.65,3.53,12.7,8.53-2.04,.74-3.5,2.7-3.5,4.99Z"/><path class="cls-15" d="M402.18,279.53c0-.06,0-.13,0-.19,0-2.14-.67-4.12-1.81-5.74,1.48-1.42,3.49-2.3,5.7-2.3,2.1,0,4.01,.78,5.46,2.08-.93,1.85-1.46,3.94-1.46,6.15h-7.89Z"/><path class="cls-15" d="M414.3,279.53h-4.23c0-2.21,.53-4.3,1.46-6.15,1.7,1.51,2.77,3.7,2.77,6.15Z"/><path class="cls-15" d="M436.49,274.35c.57-.21,1.18-.33,1.82-.33,2.94,0,5.32,2.38,5.32,5.32,0,.06,0,.13,0,.19h-6.11c0-1.84-.36-3.59-1.02-5.19Z"/><path class="cls-15" d="M433,279.53c0-.06,0-.13,0-.19,0-2.3,1.46-4.25,3.5-4.99,.65,1.6,1.02,3.35,1.02,5.19h-4.51Z"/><path class="cls-15" d="M397.84,279.53h-12.64c0-1.64-.98-3.05-2.39-3.69,1.42-3.8,5.08-6.5,9.37-6.5,3.39,0,6.38,1.68,8.18,4.26-1.56,1.5-2.53,3.6-2.53,5.93Z"/><path class="cls-15" d="M402.18,279.53h-4.34c0-2.33,.97-4.44,2.53-5.93,1.14,1.63,1.81,3.6,1.81,5.74,0,.06,0,.13,0,.19Z"/><path class="cls-15" d="M382.19,279.53h-5.07c0-2.23,1.81-4.04,4.04-4.04,.59,0,1.15,.13,1.65,.36-.41,1.09-.63,2.27-.63,3.5,0,.06,0,.13,0,.19Z"/><path class="cls-15" d="M385.2,279.53h-3.01c0-.06,0-.13,0-.19,0-1.23,.22-2.41,.63-3.5,1.41,.63,2.39,2.04,2.39,3.69Z"/></g><g><polygon class="cls-24" points="211.39 139.72 226.49 131.14 232.06 138.61 247.99 138.31 237.82 172.24 190.79 167.31 212.5 147.91 211.39 139.72"/><path class="cls-6" d="M277.22,238.48l-29.23-100.17-17.52,17.65-5.01,.48-13.71-12.04-6.2,.6-6.44,10.61v1.79h1.79l-.12,.83s-9.54,2.03-12.04,4.89c-2.5,2.86-6.68,12.04-6.68,12.04l-9.84,36.13s-1.61,3.76,1.07,5.9,5.9,11.45,5.9,11.45c0,0,7.51,8.05,18.25,6.26l5.01,1.97s-.08,1.25-.2,3.32h75.08l-.11-1.71Z"/><path class="cls-21" d="M194.13,121.68s-3.94-8.59,5.55-14.31c9.48-5.72,16.28,1.43,16.28,1.43l6.62,8.59s3.22-5.37,5.01,5.37c0,0,.89,3.22-2.86,1.07l1.79,4.11s1.43,8.94-1.25,13.95-9.3,4.47-9.3,4.47c0,0-10.2-3.22-14.67-10.91-4.47-7.69-7.16-13.77-7.16-13.77Z"/><path class="cls-19" d="M221.77,118.52s-2.54-4.21-6.44-4.21c0,0,.64-3.82-1.83-4.61s-8.27,0-8.27,0c0,0-11.53,2.78-9.78,14.39l2.54,4.53-.48,.48-2.78-3.9-1.59-.95s.16-1.43-.72-1.43-1.55-2.76-1.55-2.76c0,0-.57-2.33,.98-2.39,0,0,.54-.98-.48-1.37s-1.19-2.33-1.19-2.33c0,0,.3-1.43,1.97-1.1,0,0,.67-.67-.05-1.38s.56-2.31,.56-2.31c0,0,.85-.36,1.1-.56s.09-1.35,1.01-1.31,1.35-.68,1.35-.68c0,0,.32-.98,.87-1.15s1.39,.44,1.59,0,.04-1.4,1.07-1.4,.91,.76,1.27,.28,.85-1.43,1.99-1.37,1.43-.6,1.43-.6c0,0,1.31-.42,1.97,.48s2.44-.06,2.44-.06c0,0,1.43-1.51,2.56-.51s2.8,.75,2.8,.75c0,0,1.49-.24,1.91,1.31s1.49,.66,1.49,.66c0,0,2.03-.36,1.61,1.97,0,0,.24,.78,1.31,.48s1.31,2.03,1.31,2.03c0,0,.72-.36,.72,.72v2.33s1.13-.72,1.13,.18-.3,1.55,0,2.21,.54,1.19,.54,1.19c0,0-.6,.54-.78,.54s-.89,.72-.89,.72l-.72,1.15Z"/><polygon class="cls-5" points="252.92 74.09 263.9 65.63 264.37 105.7 252.92 106.65 252.92 74.09"/><polygon class="cls-14" points="309.45 69.56 310.4 108.8 264.37 105.7 263.9 65.63 309.45 69.56"/><polygon class="cls-5" points="230.39 115.33 250.78 104.03 250.78 172.48 229.79 176.53 230.39 115.33"/><polygon class="cls-14" points="337.23 111.03 250.78 104.03 250.78 172.47 338.43 175.7 337.23 111.03"/><polygon class="cls-5" points="221.86 175.34 243.75 171.77 243.27 241.01 220.93 236.08 221.86 175.34"/><polygon class="cls-14" points="341.77 174.38 243.75 171.77 243.27 241.01 341.77 239.02 341.77 174.38"/><g><polygon class="cls-12" points="263.72 236.2 248.47 236.42 248.47 224.99 263.72 224.99 263.72 236.2"/><rect class="cls-23" x="249.49" y="226.17" width="6.13" height=".33"/><rect class="cls-23" x="249.49" y="227.85" width="11.2" height=".33"/><rect class="cls-23" x="249.49" y="229.53" width="12.57" height=".33"/><rect class="cls-23" x="249.49" y="234.05" width="5.23" height=".33"/></g><g id="DontWet"><g><path class="cls-3" d="M298.76,160.35v5.41s.01,.84-.51,.84-.54-.66-.54-.66"/><path class="cls-10" d="M298.73,155.83c-2.91,0-5.28,1.9-5.28,4.23,0,.2,.02,.39,.05,.59l.7-.31c.4-.18,.86-.17,1.26,0l.65,.3,.66-.3c.4-.18,.86-.18,1.26,0l.69,.3,.7-.31c.4-.18,.86-.17,1.26,0l.65,.3,.66-.3c.4-.18,.86-.18,1.26,0l.69,.3c.03-.19,.05-.39,.05-.59,0-2.34-2.36-4.23-5.28-4.23Z"/></g><rect class="cls-2" x="292.52" y="154.14" width="12.43" height="14.15"/></g><g id="Fragile"><g><path class="cls-10" d="M313.14,161.69c2.87,0,2.87-2.6,2.87-5.82h-5.73c0,3.21,0,5.82,2.87,5.82Z"/><rect class="cls-10" x="312.9" y="160.9" width=".47" height="5.2"/><rect class="cls-10" x="312.9" y="164.52" width=".47" height="3.61" transform="translate(479.47 -146.81) rotate(90)"/></g><rect class="cls-2" x="306.92" y="154.14" width="12.43" height="14.15"/></g><g id="ThisWayUp"><g><rect class="cls-10" x="323.15" y="165.23" width="9.02" height="1.34"/><rect class="cls-10" x="325.15" y="158.38" width="1.11" height="6.16"/><rect class="cls-10" x="329.06" y="158.38" width="1.11" height="6.16"/><polygon class="cls-10" points="325.7 155.86 324.25 158.38 327.16 158.38 325.7 155.86"/><polygon class="cls-10" points="329.62 155.86 328.17 158.38 331.07 158.38 329.62 155.86"/></g><rect class="cls-2" x="321.44" y="154.14" width="12.43" height="14.15"/></g><path class="cls-21" d="M214.11,211.05s-5.13,6.08,.24,11.15l5.66-.36s3.58,3.46,4.77,3.1l7.21,7.27s1.49,.95,1.61-.83l-4.01-7.35,4.77,1.99s2.19,.6,1.51-1.71l-4.85-4.81,4.98,.32s2.06-.2,.47-2.78l-7.55-4.05,6.68-.44s2.7-1.99-.2-3.46l-8.07-.83s-1.27-.95,.72-1.71c1.99-.76,3.5-3.3,3.5-3.3,0,0,1.27-4.01-.28-4.45s-1.27,1.63-1.87,1.75l-4.57,2.9-10.71,7.61Z"/><path class="cls-17" d="M274.21,252.98l-75.59,4.78c-.56,6.74-.22,15.5,.61,24.9h79.22c-2.08-16.82-4.25-29.68-4.25-29.68Z"/><path class="cls-6" d="M202.25,240.19s-5.75,22.18-4.31,30.55c0,0,60.54-24.29,76.57-12.98l-1.2-18.6-71.06,1.03Z"/></g></g></g><g id="Layer_3"><text transform="translate(291.74 152.1)"><tspan><tspan class="cls-11" x="0" y="0">P</tspan><tspan class="cls-8" x="3.95" y="0">AKKE</tspan><tspan class="cls-7" x="23.12" y="0">L</tspan><tspan class="cls-8" x="27.22" y="0">A</tspan><tspan class="cls-9" x="32.46" y="0">D</tspan><tspan class="cls-8" x="37.26" y="0">A</tspan><tspan class="cls-13" x="42.5" y="0"> </tspan></tspan></text></g></svg>